<?xml version="1.0" encoding="UTF-8" standalone="no"?>
<!DOCTYPE svg PUBLIC "-//W3C//DTD SVG 1.1//EN" "http://www.w3.org/Graphics/SVG/1.1/DTD/svg11.dtd">
<svg xmlns="http://www.w3.org/2000/svg" version="1.1" viewBox="0.00 0.00 783.00 992.00">
<path fill="#181818" d="
  M 128.56 0.54
  Q 130.21 0.87 131.37 2.09
  C 134.02 4.88 136.80 12.22 133.16 15.93
  C 126.03 23.19 113.31 20.49 113.33 9.32
  C 113.33 1.92 122.58 -0.68 128.56 0.54
  Z"
/>
<path fill="#181818" d="
  M 331.31 59.27
  C 328.57 58.61 325.99 53.08 325.02 50.24
  C 322.67 43.43 330.71 43.93 331.79 39.41
  Q 331.92 38.88 332.47 38.98
  C 340.23 40.46 350.88 43.50 344.96 54.15
  Q 340.84 61.55 331.31 59.27
  Z"
/>
<path fill="#181818" d="
  M 192.10 67.30
  Q 213.06 88.83 230.11 109.14
  C 237.63 118.10 226.31 124.02 219.07 124.49
  A 1.14 1.13 64.6 0 1 218.19 124.17
  C 214.51 120.61 210.61 115.50 208.08 112.73
  Q 189.51 92.41 170.05 72.95
  C 167.67 70.57 169.46 63.11 169.96 61.48
  C 170.47 59.85 172.69 58.45 174.46 58.12
  C 182.83 56.56 185.78 60.81 192.10 67.30
  Z"
/>
<ellipse fill="#181818" cx="0.00" cy="0.00" transform="translate(35.51,79.51) rotate(-3.7)" rx="9.49" ry="9.12"/>
<path fill="#181818" d="
  M 606.55 545.75
  C 612.24 561.17 592.35 568.41 587.81 553.23
  Q 583.63 539.27 578.29 525.70
  C 577.91 524.75 576.97 523.73 576.91 522.22
  Q 576.87 521.07 576.63 520.46
  Q 573.68 513.00 570.92 505.49
  Q 557.34 468.52 541.17 432.63
  Q 536.98 423.33 533.07 414.34
  C 515.70 374.40 495.33 333.68 475.40 295.70
  Q 456.31 259.34 435.54 223.92
  Q 430.26 214.90 425.53 206.59
  C 404.52 169.65 382.79 134.23 360.16 99.08
  Q 358.09 95.86 357.39 92.62
  A 1.24 1.22 -33.7 0 1 357.59 91.66
  C 363.60 83.21 371.84 84.83 377.22 92.75
  C 396.45 121.09 414.41 150.11 432.68 179.06
  C 451.48 208.86 469.70 243.26 487.43 275.76
  Q 511.91 320.65 533.10 367.18
  Q 537.11 375.97 541.63 385.27
  C 561.62 426.41 576.88 469.81 594.78 511.86
  Q 595.69 514.01 597.09 518.91
  C 598.17 522.68 600.31 525.93 601.11 529.82
  Q 601.45 531.49 602.22 533.00
  C 604.20 536.85 605.02 541.62 606.55 545.75
  Z"
/>
<path fill="#181818" d="
  M 126.97 137.02
  Q 130.61 141.14 128.30 146.13
  A 1.54 1.46 53.3 0 0 128.19 147.04
  C 129.04 151.87 119.61 153.99 116.09 154.24
  Q 115.60 154.27 115.19 153.98
  C 110.70 150.76 105.79 141.67 110.80 136.89
  C 115.42 132.47 122.39 131.83 126.97 137.02
  Z"
/>
<path fill="#181818" d="
  M 268.56 150.11
  C 304.75 192.58 337.22 235.13 367.77 276.99
  C 388.07 304.81 403.88 328.58 421.43 354.70
  Q 427.04 363.04 432.26 371.50
  C 445.88 393.58 459.96 415.57 472.73 438.14
  Q 498.63 483.94 523.01 530.56
  Q 523.26 531.03 523.69 531.33
  Q 524.41 531.84 524.28 532.76
  Q 524.22 533.27 524.45 533.72
  Q 539.91 564.51 549.41 585.07
  C 552.75 592.30 556.27 599.04 559.38 606.16
  Q 570.55 631.68 581.56 657.27
  C 582.52 659.52 583.18 661.93 583.89 664.29
  C 586.54 673.12 579.33 680.57 570.58 676.26
  C 567.05 674.52 564.32 668.07 562.91 664.57
  C 554.83 644.54 545.84 625.02 537.43 605.16
  Q 533.11 594.94 529.27 586.91
  Q 507.83 542.07 484.04 498.43
  C 483.45 497.35 481.55 495.74 481.14 493.85
  Q 480.83 492.45 480.45 491.79
  Q 461.37 458.30 436.53 416.96
  C 413.06 377.91 387.19 340.78 361.70 303.20
  Q 355.96 294.73 350.22 286.82
  Q 307.47 227.78 262.82 170.17
  C 259.40 165.76 244.43 151.13 250.17 145.46
  C 257.55 138.16 263.69 144.39 268.56 150.11
  Z"
/>
<path fill="#181818" d="
  M 164.26 190.51
  A 4.74 4.74 0.0 0 1 168.99 185.76
  L 174.17 185.75
  A 9.66 9.56 89.9 0 1 183.75 195.39
  L 183.75 195.39
  A 9.66 9.56 89.9 0 1 174.21 205.07
  L 169.03 205.08
  A 4.74 4.74 0.0 0 1 164.28 200.35
  L 164.26 190.51
  Z"
/>
<path fill="#181818" d="
  M 0.00 213.19
  L 0.00 207.24
  C 3.18 198.89 10.45 199.01 16.66 203.82
  Q 35.84 218.68 55.18 233.34
  A 1.16 1.13 7.2 0 1 55.54 233.79
  Q 55.71 234.18 56.05 234.45
  C 136.89 299.06 212.54 369.95 282.30 446.39
  Q 285.69 450.10 286.60 452.06
  C 288.59 456.34 287.41 462.61 282.78 464.60
  C 272.51 469.01 266.01 456.73 260.40 450.84
  C 206.06 393.77 151.65 340.01 89.91 287.44
  C 62.35 263.97 33.99 241.34 5.29 219.47
  Q 1.85 216.85 0.00 213.19
  Z"
/>
<rect fill="#181818" x="-10.31" y="-9.60" transform="translate(215.71,239.85) rotate(6.7)" width="20.62" height="19.20" rx="8.75"/>
<path fill="#181818" d="
  M 295.15 314.36
  C 325.83 350.37 354.92 388.00 382.91 426.12
  C 394.75 442.24 405.97 458.78 417.35 475.23
  C 430.96 494.91 443.59 515.32 456.89 535.24
  Q 462.65 543.89 467.59 552.13
  Q 487.74 585.78 507.69 619.56
  C 509.90 623.29 512.89 629.25 515.83 634.14
  C 518.40 638.42 520.21 645.16 516.83 649.47
  Q 513.09 654.22 506.45 652.32
  C 501.39 650.87 498.91 644.47 496.35 640.17
  Q 494.39 636.88 492.42 633.13
  Q 473.35 596.90 451.43 562.32
  Q 417.08 508.14 397.79 481.45
  C 381.15 458.42 364.75 435.06 347.45 412.52
  Q 294.57 343.61 239.76 276.23
  C 234.81 270.15 245.32 265.98 249.48 265.41
  A 1.63 1.60 -35.1 0 1 250.39 265.56
  Q 256.34 268.48 260.31 273.20
  Q 277.66 293.84 295.15 314.36
  Z"
/>
<circle fill="#181818" cx="304.77" cy="484.30" r="10.22"/>
<path fill="#181818" d="
  M 338.84 510.95
  C 360.77 536.92 382.40 563.78 402.67 591.06
  C 430.37 628.34 457.97 666.11 483.01 705.23
  C 485.88 709.71 483.24 714.82 479.28 717.52
  C 470.73 723.35 466.39 715.19 462.44 709.35
  Q 420.40 647.23 398.30 617.45
  Q 389.11 605.06 354.36 560.68
  C 343.34 546.60 330.20 531.48 320.31 518.44
  Q 318.44 515.98 317.81 511.96
  A 1.17 1.13 -33.9 0 1 317.99 511.12
  C 322.25 504.73 331.04 500.42 336.49 507.77
  Q 338.79 510.89 338.84 510.95
  Z"
/>
<path fill="#181818" d="
  M 783.00 622.98
  L 783.00 633.31
  Q 781.79 635.45 779.58 636.84
  C 761.41 648.19 742.14 658.67 724.98 671.42
  Q 716.85 677.46 718.49 687.51
  Q 719.19 691.82 723.06 704.12
  C 727.87 719.38 734.88 736.52 737.86 750.31
  C 739.26 756.76 738.66 761.55 733.06 765.04
  A 1.40 1.38 32.9 0 1 732.10 765.24
  C 727.61 764.58 723.34 764.66 720.71 760.40
  C 709.08 741.52 698.13 722.05 685.34 703.95
  C 681.22 698.13 673.38 695.44 666.16 697.83
  Q 641.07 706.15 616.22 715.17
  Q 615.81 715.32 614.93 715.11
  Q 614.43 714.99 613.94 715.16
  L 601.60 719.48
  A 0.76 0.76 0.0 0 1 601.12 719.48
  Q 590.61 716.22 592.51 704.81
  Q 592.82 702.97 593.65 702.45
  Q 628.87 680.69 647.21 669.23
  Q 654.22 664.85 659.19 657.74
  Q 659.48 657.31 659.51 656.79
  C 659.88 649.02 657.63 643.75 655.41 636.64
  Q 651.21 623.18 646.67 609.84
  C 643.43 600.30 640.83 590.42 637.40 580.96
  A 1.33 1.33 0.0 0 1 637.40 580.04
  C 640.66 570.98 650.59 567.02 656.81 576.44
  C 660.39 581.85 663.57 587.91 667.01 592.98
  Q 678.52 609.97 689.05 627.57
  Q 693.26 634.61 695.99 636.60
  C 702.85 641.59 710.24 639.36 718.76 636.21
  Q 722.82 634.71 729.64 632.71
  C 734.68 631.24 739.78 629.09 744.50 627.61
  C 748.32 626.41 757.50 622.12 760.96 622.54
  Q 761.47 622.60 761.92 622.38
  C 767.84 619.50 779.00 614.50 783.00 622.98
  Z"
/>
<path fill="#181818" d="
  M 687.65 992.00
  L 678.30 992.00
  Q 668.65 979.42 660.43 965.73
  C 646.07 941.82 630.87 918.45 615.73 895.03
  Q 612.49 890.02 606.55 886.74
  C 597.83 881.91 587.52 881.73 578.36 885.59
  C 575.45 886.81 571.85 887.08 568.25 888.24
  Q 554.97 892.55 541.75 897.02
  C 536.63 898.75 528.61 901.08 522.18 903.86
  C 520.70 904.50 518.89 904.23 517.39 904.80
  C 513.77 906.18 501.44 911.68 498.30 911.23
  A 1.94 1.90 -51.5 0 0 497.27 911.36
  Q 486.15 916.13 474.25 918.30
  Q 473.73 918.39 473.30 918.08
  C 471.32 916.65 469.28 915.85 467.80 914.02
  C 461.38 906.07 468.12 901.76 474.19 897.45
  Q 477.04 895.43 478.86 894.95
  Q 479.36 894.82 479.74 894.47
  Q 483.26 891.27 488.00 890.19
  A 2.02 2.02 0.0 0 0 489.25 887.14
  Q 477.35 868.55 465.55 849.96
  C 463.44 846.63 459.95 843.73 455.73 844.95
  Q 449.86 846.66 444.21 848.80
  C 442.67 849.38 441.41 850.76 439.08 850.49
  Q 438.58 850.43 438.17 850.70
  Q 436.40 851.81 434.44 852.33
  C 425.14 854.76 415.88 857.43 406.38 861.83
  Q 405.92 862.04 405.45 861.87
  L 404.77 861.62
  Q 404.30 861.46 403.96 861.82
  L 402.66 863.21
  A 0.82 0.82 0.0 0 1 401.58 863.32
  Q 400.09 862.25 398.51 863.15
  Q 398.06 863.41 397.55 863.27
  Q 387.15 860.49 388.39 849.47
  A 0.91 0.91 0.0 0 1 388.84 848.78
  Q 391.79 847.00 393.54 844.01
  A 1.24 1.19 8.4 0 1 394.36 843.43
  C 398.55 842.65 400.23 840.24 403.71 838.61
  C 406.40 837.36 408.68 835.31 410.92 834.01
  Q 414.18 832.12 417.33 830.06
  C 424.10 825.65 431.21 821.85 437.97 817.40
  C 448.29 810.62 443.39 801.25 440.07 791.31
  Q 433.89 772.83 428.21 754.19
  C 424.96 743.52 432.00 735.05 442.85 740.95
  Q 444.96 742.10 446.71 745.00
  C 455.25 759.18 463.41 773.41 472.43 787.31
  C 479.58 798.31 489.98 793.40 499.79 790.26
  Q 504.97 788.61 509.96 786.47
  C 512.60 785.34 515.71 785.37 518.50 783.44
  A 1.33 1.31 31.3 0 1 519.43 783.22
  Q 520.27 783.34 520.68 783.17
  Q 526.99 780.56 533.56 778.73
  C 537.23 777.71 540.35 776.49 544.28 776.75
  A 1.64 1.59 -22.9 0 1 545.15 777.09
  Q 549.95 780.97 550.83 786.53
  C 551.52 790.84 548.77 793.36 545.13 795.80
  Q 523.98 809.95 501.76 822.40
  C 500.04 823.37 498.99 825.17 497.06 826.22
  A 1.15 1.13 84.9 0 0 496.51 826.89
  Q 494.81 832.77 495.46 834.52
  Q 499.64 845.90 503.22 857.50
  C 504.42 861.41 506.99 867.01 507.63 872.66
  A 1.73 1.73 0.0 0 0 509.96 874.08
  C 514.87 872.25 519.73 870.11 523.99 866.90
  Q 525.73 865.60 527.83 865.00
  A 1.20 1.20 0.0 0 0 528.58 864.39
  C 530.42 860.87 534.81 860.47 537.88 857.83
  Q 538.25 857.51 538.74 857.48
  C 540.48 857.36 544.54 854.27 546.30 853.26
  C 551.25 850.41 555.64 846.95 560.39 843.91
  C 572.53 836.15 578.97 822.90 574.95 808.67
  C 574.04 805.43 573.53 801.96 572.46 798.90
  Q 565.57 779.31 559.71 759.39
  C 559.03 757.07 557.08 751.90 556.28 748.07
  Q 555.64 745.04 554.89 743.02
  Q 549.42 728.31 544.47 713.41
  Q 543.75 711.21 543.17 707.47
  C 542.32 701.94 539.79 697.15 544.99 692.96
  C 548.13 690.43 553.44 691.59 557.05 692.59
  Q 557.53 692.73 557.82 693.14
  Q 562.79 700.25 567.40 707.58
  Q 588.99 741.93 610.46 776.35
  C 615.41 784.28 620.21 793.25 629.21 797.31
  Q 630.59 797.93 631.01 798.65
  Q 631.26 799.09 631.73 799.30
  Q 638.41 802.22 645.54 800.52
  Q 645.99 800.41 646.38 800.67
  L 647.01 801.11
  Q 647.45 801.41 647.93 801.19
  C 651.72 799.51 655.99 799.51 659.25 798.60
  Q 667.86 796.20 676.19 792.95
  C 676.94 792.66 678.03 792.69 679.00 792.38
  Q 695.14 787.11 711.11 781.34
  Q 711.48 781.21 711.86 781.22
  L 713.50 781.26
  A 1.03 1.02 -71.9 0 0 714.39 780.80
  C 716.19 778.13 718.62 778.92 720.81 778.07
  Q 725.00 776.43 729.20 774.87
  C 730.69 774.31 731.94 774.77 733.32 774.31
  C 738.24 772.65 743.20 771.23 748.01 769.25
  C 756.93 765.57 761.83 765.70 767.72 773.29
  A 1.21 1.20 -59.4 0 1 767.96 774.24
  C 767.32 778.40 765.79 783.70 761.89 785.93
  Q 755.42 789.63 749.27 793.83
  C 748.00 794.70 745.35 795.83 743.76 797.18
  Q 742.50 798.24 741.68 798.71
  Q 731.15 804.81 721.03 811.56
  C 720.19 812.12 719.09 812.00 718.50 812.51
  C 715.94 814.72 712.52 816.32 710.25 817.68
  C 694.64 827.02 658.44 844.87 658.69 865.10
  Q 658.78 871.89 660.48 878.50
  C 662.50 886.33 664.75 894.11 667.20 901.80
  Q 675.32 927.27 684.30 952.45
  C 684.79 953.82 684.83 955.32 685.38 956.85
  Q 688.34 965.15 691.33 973.43
  C 691.71 974.48 691.41 975.79 691.86 977.06
  C 694.00 983.12 695.58 989.40 687.65 992.00
  Z
  M 577.69 855.19
  C 572.12 860.34 563.34 867.79 556.11 870.19
  Q 554.23 870.81 553.50 871.53
  Q 550.81 874.19 554.24 872.72
  L 564.35 868.39
  Q 564.85 868.18 565.38 868.24
  Q 566.34 868.36 567.08 868.07
  C 593.68 857.45 621.17 864.19 635.32 890.30
  C 636.20 891.93 637.74 892.75 638.75 894.44
  C 642.23 900.22 646.29 905.69 649.78 911.49
  Q 649.93 911.74 650.23 911.75
  Q 650.35 911.75 650.49 911.75
  A 0.31 0.31 0.0 0 0 650.78 911.31
  C 646.48 902.28 645.92 896.94 642.83 889.68
  Q 639.23 881.22 638.56 870.94
  C 638.41 868.69 639.51 866.09 639.26 864.26
  Q 638.67 859.92 639.11 858.49
  C 642.03 849.09 645.46 838.23 653.27 831.63
  C 656.03 829.29 658.05 826.67 661.19 824.86
  Q 666.94 821.54 672.46 817.85
  C 674.61 816.41 677.46 815.60 679.76 813.84
  Q 680.19 813.50 680.71 813.34
  Q 682.22 812.86 683.47 811.97
  A 0.40 0.40 0.0 0 0 683.16 811.25
  C 677.44 812.49 672.27 815.25 666.90 817.49
  Q 666.41 817.69 665.91 817.54
  Q 664.83 817.22 664.22 817.48
  Q 658.10 820.09 651.59 821.38
  Q 651.13 821.47 650.68 821.32
  Q 647.64 820.28 644.64 821.66
  Q 644.21 821.86 643.73 821.82
  C 638.42 821.30 628.28 820.26 623.91 817.28
  C 621.61 815.71 618.50 814.26 616.72 813.05
  C 601.81 802.88 594.43 787.11 585.43 772.43
  A 0.49 0.49 0.0 0 0 584.55 772.85
  Q 588.80 784.84 592.65 797.17
  Q 596.13 808.31 596.35 814.65
  C 596.94 831.19 589.81 841.29 580.22 854.38
  Q 579.90 854.80 579.40 854.67
  Q 578.49 854.45 577.69 855.19
  Z"
/>
<path fill="#181818" d="
  M 502.47 763.66
  C 498.68 763.44 492.18 761.39 491.32 756.94
  Q 489.47 747.31 497.97 743.67
  Q 500.68 742.51 504.55 743.88
  C 514.61 747.45 512.09 764.22 502.47 763.66
  Z"
/>
</svg>
